HIERARCHY
ROOT newVegas:Hips
{
	OFFSET 0.000000 96.479958 0.000000
	CHANNELS 6 Xposition Yposition Zposition Xrotation Yrotation Zrotation
	JOINT newVegas:Pelvis
	{
		OFFSET 0.000000 0.000000 0.000000
		CHANNELS 3 Xrotation Yrotation Zrotation
		JOINT newVegas:LeftUpLeg
		{
			OFFSET 18.735201 -5.666702 -4.541200
			CHANNELS 3 Xrotation Yrotation Zrotation
			JOINT newVegas:LeftLeg
			{
				OFFSET -0.021200 -31.938179 0.493100
				CHANNELS 3 Xrotation Yrotation Zrotation
				JOINT newVegas:LeftFoot
				{
					OFFSET 0.021200 -31.938179 -4.336299
					CHANNELS 3 Xrotation Yrotation Zrotation
					JOINT newVegas:LeftToeBase
					{
						OFFSET 0.943001 -26.722000 15.023500
						CHANNELS 3 Xrotation Yrotation Zrotation
						End Site
						{
							OFFSET 0.000000 30.670183 0.000000
						}
					}
				}
				JOINT newVegas:Left_PantLeg
				{
					OFFSET 0.663870 -9.044666 -1.108900
					CHANNELS 3 Xrotation Yrotation Zrotation
					End Site
					{
						OFFSET 1.415995 20.635357 0.000000
					}
				}
			}
		}
		JOINT newVegas:RightUpLeg
		{
			OFFSET -18.735201 -5.666702 -4.541200
			CHANNELS 3 Xrotation Yrotation Zrotation
			JOINT newVegas:RightLeg
			{
				OFFSET 0.018946 -31.938133 0.493100
				CHANNELS 3 Xrotation Yrotation Zrotation
				JOINT newVegas:RightFoot
				{
					OFFSET -0.018946 -31.938126 -4.336299
					CHANNELS 3 Xrotation Yrotation Zrotation
					JOINT newVegas:RightToeBase
					{
						OFFSET -0.943001 -26.722004 15.023500
						CHANNELS 3 Xrotation Yrotation Zrotation
						End Site
						{
							OFFSET 0.000000 30.670187 0.000000
						}
					}
				}
				JOINT newVegas:Right_PantLeg
				{
					OFFSET -0.661674 -9.044716 -1.108900
					CHANNELS 3 Xrotation Yrotation Zrotation
					End Site
					{
						OFFSET -1.415958 20.635269 0.000000
					}
				}
			}
		}
	}
	JOINT newVegas:Spine
	{
		OFFSET 0.000000 10.199997 -0.299500
		CHANNELS 3 Xrotation Yrotation Zrotation
		JOINT newVegas:Spine1
		{
			OFFSET 0.000000 11.900002 -1.516600
			CHANNELS 3 Xrotation Yrotation Zrotation
			JOINT newVegas:Spine2
			{
				OFFSET 0.000000 13.600006 -2.842500
				CHANNELS 3 Xrotation Yrotation Zrotation
				JOINT newVegas:Neck
				{
					OFFSET 0.000000 9.624100 -2.890100
					CHANNELS 3 Xrotation Yrotation Zrotation
					JOINT newVegas:Head
					{
						OFFSET 0.000000 14.068802 -1.351900
						CHANNELS 3 Xrotation Yrotation Zrotation
						JOINT newVegas:Hair_Back
						{
							OFFSET 0.000000 3.231903 -17.524799
							CHANNELS 3 Xrotation Yrotation Zrotation
							End Site
							{
								OFFSET 0.000000 19.849884 0.000000
							}
						}
						JOINT newVegas:Hair_Front
						{
							OFFSET 0.000000 31.260406 4.573800
							CHANNELS 3 Xrotation Yrotation Zrotation
							JOINT newVegas:Hair_Front1
							{
								OFFSET 0.000000 2.284103 11.993300
								CHANNELS 3 Xrotation Yrotation Zrotation
								JOINT newVegas:Hair_Front2
								{
									OFFSET 0.000000 2.284103 11.993300
									CHANNELS 3 Xrotation Yrotation Zrotation
									End Site
									{
										OFFSET 0.000000 12.208862 0.000000
									}
								}
							}
						}
						JOINT newVegas:Jowel
						{
							OFFSET 0.000000 -7.458206 6.864100
							CHANNELS 3 Xrotation Yrotation Zrotation
							End Site
							{
								OFFSET 0.000000 19.849884 0.000000
							}
						}
					}
				}
				JOINT newVegas:LeftShoulder
				{
					OFFSET 15.263000 10.923401 -0.547700
					CHANNELS 3 Xrotation Yrotation Zrotation
					JOINT newVegas:LeftArm
					{
						OFFSET 25.438599 -2.830597 -13.032500
						CHANNELS 3 Xrotation Yrotation Zrotation
						JOINT newVegas:LeftForeArm
						{
							OFFSET 29.960503 0.000000 0.000000
							CHANNELS 3 Xrotation Yrotation Zrotation
							JOINT newVegas:LeftHand
							{
								OFFSET 27.849251 0.000000 0.000000
								CHANNELS 3 Xrotation Yrotation Zrotation
								JOINT newVegas:LeftHandThumb1
								{
									OFFSET 4.487587 -3.305161 6.305391
									CHANNELS 3 Xrotation Yrotation Zrotation
									JOINT newVegas:LeftHandThumb2
									{
										OFFSET 5.480453 -3.164139 3.164143
										CHANNELS 3 Xrotation Yrotation Zrotation
										JOINT newVegas:LeftHandThumb3
										{
											OFFSET 5.159721 -2.978973 2.978967
											CHANNELS 3 Xrotation Yrotation Zrotation
											End Site
											{
												OFFSET 2.494507 5.926697 1.738678
											}
										}
									}
								}
								JOINT newVegas:LeftHandIndex1
								{
									OFFSET 18.578728 -0.527832 5.208049
									CHANNELS 3 Xrotation Yrotation Zrotation
									JOINT newVegas:LeftHandIndex2
									{
										OFFSET 3.192009 0.000000 0.000000
										CHANNELS 3 Xrotation Yrotation Zrotation
										JOINT newVegas:LeftHandIndex3
										{
											OFFSET 3.835129 0.000000 0.000000
											CHANNELS 3 Xrotation Yrotation Zrotation
											End Site
											{
												OFFSET -0.034599 3.816971 0.371180
											}
										}
									}
								}
								JOINT newVegas:LeftHandMiddle1
								{
									OFFSET 18.476105 0.000000 0.000000
									CHANNELS 3 Xrotation Yrotation Zrotation
									JOINT newVegas:LeftHandMiddle2
									{
										OFFSET 3.324875 0.000000 0.000000
										CHANNELS 3 Xrotation Yrotation Zrotation
										JOINT newVegas:LeftHandMiddle3
										{
											OFFSET 4.596550 0.000000 0.000000
											CHANNELS 3 Xrotation Yrotation Zrotation
											End Site
											{
												OFFSET 0.057701 4.578827 0.399218
											}
										}
									}
								}
								JOINT newVegas:LeftHandRing1
								{
									OFFSET 17.732719 0.121887 -4.201567
									CHANNELS 3 Xrotation Yrotation Zrotation
									JOINT newVegas:LeftHandRing2
									{
										OFFSET 2.733170 0.000000 0.000000
										CHANNELS 3 Xrotation Yrotation Zrotation
										JOINT newVegas:LeftHandRing3
										{
											OFFSET 3.178268 0.000000 0.000000
											CHANNELS 3 Xrotation Yrotation Zrotation
											End Site
											{
												OFFSET 0.119102 3.170624 0.185394
											}
										}
									}
								}
								JOINT newVegas:LeftHandPinky1
								{
									OFFSET 15.989624 -0.606689 -7.535461
									CHANNELS 3 Xrotation Yrotation Zrotation
									JOINT newVegas:LeftHandPinky2
									{
										OFFSET 2.538986 0.000000 0.000000
										CHANNELS 3 Xrotation Yrotation Zrotation
										JOINT newVegas:LeftHandPinky3
										{
											OFFSET 2.593102 0.000000 0.000000
											CHANNELS 3 Xrotation Yrotation Zrotation
											End Site
											{
												OFFSET -0.150902 2.584198 0.152708
											}
										}
									}
								}
							}
							JOINT newVegas:Left_Sleeve
							{
								OFFSET 0.267448 -0.649796 0.577675
								CHANNELS 3 Xrotation Yrotation Zrotation
								End Site
								{
									OFFSET 0.000000 15.991241 0.000000
								}
							}
							JOINT newVegas:Left_CapeC
							{
								OFFSET 15.715958 -8.608795 -6.935905
								CHANNELS 3 Xrotation Yrotation Zrotation
								JOINT newVegas:Left_CapeC1
								{
									OFFSET 0.000000 -8.688499 0.000000
									CHANNELS 3 Xrotation Yrotation Zrotation
									End Site
									{
										OFFSET 0.000000 8.688499 0.000000
									}
								}
							}
						}
						JOINT newVegas:Left_CapeB
						{
							OFFSET 26.118385 -8.608795 -7.079235
							CHANNELS 3 Xrotation Yrotation Zrotation
							JOINT newVegas:Left_CapeB1
							{
								OFFSET 0.000000 -8.688499 0.000000
								CHANNELS 3 Xrotation Yrotation Zrotation
								End Site
								{
									OFFSET 0.000000 8.688499 0.000000
								}
							}
						}
						JOINT newVegas:Left_CapeA
						{
							OFFSET 5.115639 -8.608795 -10.395809
							CHANNELS 3 Xrotation Yrotation Zrotation
							JOINT newVegas:Left_CapeA1
							{
								OFFSET 0.000000 -8.688499 0.000000
								CHANNELS 3 Xrotation Yrotation Zrotation
								End Site
								{
									OFFSET 0.000000 8.688499 0.000000
								}
							}
						}
					}
				}
				JOINT newVegas:RightShoulder
				{
					OFFSET -15.263000 10.923401 -0.547700
					CHANNELS 3 Xrotation Yrotation Zrotation
					JOINT newVegas:RightArm
					{
						OFFSET -25.438599 -2.830597 -13.032500
						CHANNELS 3 Xrotation Yrotation Zrotation
						JOINT newVegas:RightForeArm
						{
							OFFSET -29.960503 0.000000 0.000000
							CHANNELS 3 Xrotation Yrotation Zrotation
							JOINT newVegas:RightHand
							{
								OFFSET -27.849251 0.000000 0.000000
								CHANNELS 3 Xrotation Yrotation Zrotation
								JOINT newVegas:RightHandThumb1
								{
									OFFSET -4.487587 -3.305161 6.305391
									CHANNELS 3 Xrotation Yrotation Zrotation
									JOINT newVegas:RightHandThumb2
									{
										OFFSET -5.480453 -3.164139 3.164143
										CHANNELS 3 Xrotation Yrotation Zrotation
										JOINT newVegas:RightHandThumb3
										{
											OFFSET -5.159721 -2.978973 2.978967
											CHANNELS 3 Xrotation Yrotation Zrotation
											End Site
											{
												OFFSET -2.494507 5.926697 1.738678
											}
										}
									}
								}
								JOINT newVegas:RightHandIndex1
								{
									OFFSET -18.578728 -0.527832 5.208049
									CHANNELS 3 Xrotation Yrotation Zrotation
									JOINT newVegas:RightHandIndex2
									{
										OFFSET -3.192009 0.000000 0.000000
										CHANNELS 3 Xrotation Yrotation Zrotation
										JOINT newVegas:RightHandIndex3
										{
											OFFSET -3.835129 0.000000 0.000000
											CHANNELS 3 Xrotation Yrotation Zrotation
											End Site
											{
												OFFSET 0.034599 3.816971 0.371180
											}
										}
									}
								}
								JOINT newVegas:RightHandMiddle1
								{
									OFFSET -18.476105 0.000000 0.000000
									CHANNELS 3 Xrotation Yrotation Zrotation
									JOINT newVegas:RightHandMiddle2
									{
										OFFSET -3.324875 0.000000 0.000000
										CHANNELS 3 Xrotation Yrotation Zrotation
										JOINT newVegas:RightHandMiddle3
										{
											OFFSET -4.596550 0.000000 0.000000
											CHANNELS 3 Xrotation Yrotation Zrotation
											End Site
											{
												OFFSET -0.057701 4.578827 0.399218
											}
										}
									}
								}
								JOINT newVegas:RightHandRing1
								{
									OFFSET -17.732719 0.121887 -4.201567
									CHANNELS 3 Xrotation Yrotation Zrotation
									JOINT newVegas:RightHandRing2
									{
										OFFSET -2.733170 0.000000 0.000000
										CHANNELS 3 Xrotation Yrotation Zrotation
										JOINT newVegas:RightHandRing3
										{
											OFFSET -3.178268 0.000000 0.000000
											CHANNELS 3 Xrotation Yrotation Zrotation
											End Site
											{
												OFFSET -0.119102 3.170624 0.185394
											}
										}
									}
								}
								JOINT newVegas:RightHandPinky1
								{
									OFFSET -15.989624 -0.606689 -7.535461
									CHANNELS 3 Xrotation Yrotation Zrotation
									JOINT newVegas:RightHandPinky2
									{
										OFFSET -2.538986 0.000000 0.000000
										CHANNELS 3 Xrotation Yrotation Zrotation
										JOINT newVegas:RightHandPinky3
										{
											OFFSET -2.593102 0.000000 0.000000
											CHANNELS 3 Xrotation Yrotation Zrotation
											End Site
											{
												OFFSET 0.150902 2.584198 0.152708
											}
										}
									}
								}
							}
							JOINT newVegas:Right_CapeC
							{
								OFFSET -15.715958 -8.608795 -6.935905
								CHANNELS 3 Xrotation Yrotation Zrotation
								JOINT newVegas:Right_CapeC1
								{
									OFFSET 0.000000 -8.688499 0.000000
									CHANNELS 3 Xrotation Yrotation Zrotation
									End Site
									{
										OFFSET 0.000000 8.688499 0.000000
									}
								}
							}
							JOINT newVegas:Right_Sleeve
							{
								OFFSET -0.267448 -0.649994 0.577675
								CHANNELS 3 Xrotation Yrotation Zrotation
								End Site
								{
									OFFSET 0.000000 15.991302 0.000000
								}
							}
						}
						JOINT newVegas:Right_CapeA
						{
							OFFSET -5.115540 -8.608795 -10.395824
							CHANNELS 3 Xrotation Yrotation Zrotation
							JOINT newVegas:Right_CapeA1
							{
								OFFSET 0.000000 -8.688499 0.000000
								CHANNELS 3 Xrotation Yrotation Zrotation
								End Site
								{
									OFFSET 0.000000 8.688499 0.000000
								}
							}
						}
						JOINT newVegas:Right_CapeB
						{
							OFFSET -26.118187 -8.608795 -7.079266
							CHANNELS 3 Xrotation Yrotation Zrotation
							JOINT newVegas:Right_CapeB1
							{
								OFFSET 0.000000 -8.688499 0.000000
								CHANNELS 3 Xrotation Yrotation Zrotation
								End Site
								{
									OFFSET 0.000000 8.688499 0.000000
								}
							}
						}
					}
				}
				JOINT newVegas:Left_Collar
				{
					OFFSET 18.625099 8.655502 8.828100
					CHANNELS 3 Xrotation Yrotation Zrotation
					JOINT newVegas:Left_Collar1
					{
						OFFSET 14.783401 10.540405 -1.259500
						CHANNELS 3 Xrotation Yrotation Zrotation
						End Site
						{
							OFFSET 0.000000 18.199875 0.000000
						}
					}
				}
				JOINT newVegas:Collar_Back
				{
					OFFSET 0.000000 15.630707 -20.132601
					CHANNELS 3 Xrotation Yrotation Zrotation
					End Site
					{
						OFFSET 0.000000 22.523010 0.000000
					}
				}
				JOINT newVegas:Left_Peck
				{
					OFFSET 17.239599 -5.132599 25.482599
					CHANNELS 3 Xrotation Yrotation Zrotation
					End Site
					{
						OFFSET 0.000000 22.523010 0.000000
					}
				}
				JOINT newVegas:Right_Peck
				{
					OFFSET -17.239599 -5.132202 25.482599
					CHANNELS 3 Xrotation Yrotation Zrotation
					End Site
					{
						OFFSET 0.000000 22.523010 0.000000
					}
				}
				JOINT newVegas:Right_Collar
				{
					OFFSET -18.625099 8.655792 8.828100
					CHANNELS 3 Xrotation Yrotation Zrotation
					JOINT newVegas:Right_Collar1
					{
						OFFSET -14.783401 10.539993 -1.259500
						CHANNELS 3 Xrotation Yrotation Zrotation
						End Site
						{
							OFFSET 0.000000 18.199631 0.000000
						}
					}
				}
			}
		}
		JOINT newVegas:Belly
		{
			OFFSET 0.000000 -6.540398 9.014299
			CHANNELS 3 Xrotation Yrotation Zrotation
			End Site
			{
				OFFSET 0.000000 11.566666 0.000000
			}
		}
	}
	JOINT newVegas:ElvisFacialAnim_Joint
	{
		OFFSET 1.000000 -95.330101 -8.825800
		CHANNELS 3 Xrotation Yrotation Zrotation
		End Site
		{
			OFFSET 0.000000 35.315800 0.000000
		}
	}
}
MOTION
Frames: 4
Frame Time: 0.033333
0.893667 93.829224 2.828205 -2.288171 -1.956118 -2.903927 0.000000 -0.000000 -0.000000 -20.467849 12.620568 16.759684 28.951960 7.740840 2.303307 -6.794005 -6.904945 -10.797455 0.000000 0.000002 -0.000000 0.000000 -0.000001 0.000001 -2.844133 -4.016542 2.429402 17.811183 -2.240049 3.172030 -12.445513 1.198667 -2.574623 0.000000 -0.000000 -0.000000 -0.000001 0.000000 -0.000000 1.942381 0.775267 0.583459 1.297079 -0.455191 2.686193 1.284753 -0.171108 2.688841 0.227245 -0.160017 0.014776 0.227246 -0.160018 0.014778 0.000000 0.000000 -0.000000 0.227312 -0.160018 0.014776 0.227306 -0.160017 0.014776 0.000000 0.000000 -0.000000 0.000000 0.000000 -0.000000 0.020148 -1.497061 0.533961 0.021215 -19.314178 -74.515574 -1.405270 -15.712292 -0.885259 -25.047352 -7.296667 1.373052 15.772707 2.736718 17.226050 -2.095744 31.047028 -7.361660 -0.000000 -0.000001 -0.000004 2.510361 0.893323 6.248766 -2.459505 1.276232 -15.410886 -0.000001 -0.000001 0.000000 -2.139712 4.377212 -5.490043 -0.175717 4.020273 -19.750882 0.000000 -0.000000 -0.000001 -3.333492 8.115924 -9.065346 3.636446 3.375898 -28.695185 -0.000001 0.000001 -0.000002 -6.476571 11.333615 -23.247165 10.423816 2.130586 -31.915927 0.000000 -0.000003 -0.000001 0.000001 0.000001 -0.000000 0.000001 0.000001 -0.000000 0.000000 0.000001 -0.000000 -0.000000 0.000001 -0.000000 -0.000000 0.000002 -0.000002 -0.000000 0.000001 -0.000000 -0.000000 0.000001 -0.000000 0.443030 2.393007 0.868476 4.916190 -5.881694 74.233242 -0.702969 19.868085 0.352847 -0.586994 -8.753722 7.807599 15.779585 -2.730670 -17.214098 -2.090776 -31.045887 7.368417 0.000000 -0.000000 -0.000000 2.525119 -4.484154 14.071072 -1.739341 -3.412198 25.780349 -0.000000 0.000001 -0.000002 -1.758292 -6.407479 18.153837 0.720017 -5.872037 32.593588 0.000001 -0.000000 -0.000003 -2.799256 -8.219557 15.391596 4.460350 -4.674820 37.759441 0.000000 0.000001 -0.000006 -6.219074 -11.870871 26.347813 10.976560 -2.973316 37.885444 0.000000 0.000002 -0.000001 0.000000 0.000000 0.000001 0.000000 -0.000000 0.000001 0.000000 -0.000000 0.000001 -0.000000 0.000002 0.000001 -0.000000 0.000003 0.000001 -0.000000 0.000002 0.000001 0.000000 0.000002 0.000001 -0.000000 -0.000000 -0.000000 -0.000000 -0.000000 -0.000000 -0.000000 -0.000000 -0.000000 -0.000000 -0.000000 -0.000000 -0.000000 -0.000000 -0.000000 -0.000000 -0.000000 -0.000000 -0.000000 -0.000000 -0.000000 0.000000 0.000000 0.000000 0.000000 -0.000000 -0.000000 
0.589916 93.850143 2.906485 -1.344753 -0.921788 -2.706640 0.000000 0.000000 0.000000 -20.519729 11.770952 15.708062 28.636871 9.499220 1.589436 -6.419393 -3.154245 -10.283914 -0.000000 -0.000001 0.000000 -0.000000 -0.000001 -0.000000 -3.094208 -4.086662 2.661096 17.089637 -3.280585 3.253032 -12.425235 1.230380 -2.759537 0.000000 -0.000001 -0.000000 -0.000001 -0.000001 -0.000001 1.212159 -0.272838 0.567612 1.079967 -0.327381 2.660714 1.065544 0.045062 2.619128 0.239239 -0.122966 0.024570 0.239237 -0.122966 0.024573 0.000000 0.000000 -0.000000 0.239167 -0.122962 0.024570 0.239309 -0.122971 0.024572 0.000000 0.000000 0.000000 0.000000 0.000000 -0.000000 0.009566 -0.704494 0.115220 1.155282 -22.367623 -74.303859 0.517418 -17.180753 -0.134529 -28.369186 -5.362706 2.031827 15.772713 2.736687 17.226024 -2.095727 31.047045 -7.361684 0.000002 -0.000001 -0.000004 2.439170 2.103910 -0.217061 -2.332393 1.763928 -16.749869 -0.000001 -0.000000 0.000001 -2.067947 4.984724 -9.227302 0.015813 4.495564 -22.926587 -0.000000 -0.000000 -0.000000 -3.301226 8.322802 -10.334480 3.816827 3.685329 -30.788423 -0.000000 -0.000002 -0.000001 -6.476557 11.333608 -23.247196 10.560798 2.326603 -33.288423 0.000001 -0.000005 -0.000005 0.000001 -0.000000 -0.000000 0.000001 -0.000000 -0.000000 0.000001 0.000000 0.000000 0.000001 -0.000001 -0.000002 0.000001 -0.000001 -0.000002 0.000001 -0.000001 -0.000002 0.000001 0.000000 -0.000002 0.226143 1.122288 0.559743 5.226570 -4.586898 74.741654 -2.432205 19.747831 1.002614 -1.484888 -9.921626 6.745727 15.779588 -2.730668 -17.214098 -2.090822 -31.045945 7.368349 0.000000 0.000000 0.000001 2.435441 -4.068934 11.297876 -1.947443 -2.958839 22.349289 0.000000 0.000001 -0.000001 -1.874130 -6.052343 15.879778 0.485283 -5.490172 29.807629 -0.000000 -0.000001 0.000001 -3.034413 -8.220089 13.469148 4.235192 -4.362262 35.482040 0.000001 0.000001 -0.000002 -6.354588 -11.598799 24.748171 10.834689 -2.752803 36.297667 0.000001 0.000001 0.000002 0.000000 0.000001 0.000001 0.000000 0.000000 0.000001 0.000000 0.000000 0.000001 -0.000000 0.000000 -0.000000 -0.000000 0.000000 0.000000 -0.000000 0.000000 -0.000000 -0.000000 -0.000000 0.000000 -0.000000 0.000000 -0.000000 -0.000000 0.000000 -0.000000 -0.000000 0.000000 -0.000000 -0.000000 0.000000 -0.000000 -0.000000 0.000000 -0.000000 -0.000000 0.000000 -0.000000 -0.000000 0.000000 -0.000000 -0.000000 -0.000000 0.000000 0.000000 0.000000 0.000000 
0.357078 93.855049 2.943588 -0.592638 -0.237470 -2.577231 0.000000 -0.000000 -0.000000 -20.221904 11.334425 14.799249 28.426723 10.622285 0.972852 -6.560658 1.255445 -9.743889 0.000000 0.000002 -0.000000 0.000001 -0.000003 -0.000001 -3.431751 -4.141781 2.794151 16.645379 -3.925515 3.376518 -12.407234 1.231718 -2.960313 -0.000000 -0.000000 -0.000000 -0.000001 0.000001 -0.000001 0.734289 -1.079438 0.542139 0.936582 -0.207826 2.642627 0.920549 0.232903 2.569390 0.246717 -0.088336 0.032402 0.246674 -0.088335 0.032401 -0.000000 0.000000 -0.000000 0.246595 -0.088338 0.032402 0.246656 -0.088331 0.032400 0.000000 0.000000 -0.000000 -0.000000 0.000000 -0.000000 -0.002112 -0.186272 -0.215447 2.362808 -24.628694 -73.773454 1.668555 -19.040696 0.401762 -30.557884 -3.676133 2.430880 15.772679 2.736732 17.225986 -2.095720 31.047024 -7.361679 -0.000000 -0.000002 -0.000003 2.388421 3.185304 -5.971575 -2.206352 2.245584 -18.073958 -0.000000 -0.000002 -0.000000 -2.005037 5.489788 -12.339703 0.187666 4.914385 -25.757128 -0.000000 0.000001 0.000001 -3.275228 8.487220 -11.342023 3.968542 3.943026 -32.532215 0.000002 -0.000004 -0.000001 -6.476577 11.333634 -23.247191 10.670002 2.481789 -34.378326 0.000002 -0.000003 0.000001 -0.000000 0.000000 0.000000 -0.000000 0.000000 0.000000 -0.000001 0.000001 0.000000 -0.000002 -0.000001 -0.000003 -0.000002 -0.000001 -0.000003 -0.000002 -0.000001 -0.000003 -0.000002 -0.000002 -0.000003 0.063625 0.296189 0.374422 5.355518 -3.589942 75.117744 -0.336879 19.333166 0.165115 -6.033271 -10.377516 5.857768 15.779627 -2.730688 -17.214093 -2.090790 -31.045891 7.368351 0.000001 0.000001 0.000001 2.385768 -3.770454 9.275578 -2.094607 -2.604108 19.722654 0.000000 0.000001 -0.000000 -1.949445 -5.798933 14.275833 0.324924 -5.204909 27.777975 -0.000002 -0.000001 0.000002 -3.198948 -8.213900 12.143122 4.086359 -4.136020 33.875723 -0.000002 0.000002 -0.000002 -6.443138 -11.409822 23.665598 10.746087 -2.600699 35.221602 0.000000 0.000003 0.000002 0.000000 0.000000 -0.000001 0.000000 0.000001 -0.000000 0.000000 0.000000 -0.000001 0.000000 0.000001 0.000001 0.000000 0.000001 0.000001 0.000000 0.000001 0.000001 0.000000 0.000001 0.000001 -0.000000 0.000000 -0.000000 -0.000000 0.000000 -0.000000 -0.000000 0.000000 -0.000000 -0.000000 0.000000 -0.000000 -0.000000 0.000000 -0.000000 -0.000000 0.000000 -0.000000 -0.000000 0.000000 -0.000000 0.000000 0.000000 0.000000 0.000000 -0.000000 -0.000000 
0.299324 93.813744 2.954379 -0.283750 0.011235 -2.531108 -0.000000 0.000000 -0.000000 -20.160102 11.175637 14.422194 28.550887 11.011491 0.703954 -6.788022 3.469194 -9.496783 0.000000 0.000002 0.000000 0.000001 0.000001 0.000001 -3.756140 -4.161078 2.753090 16.736380 -2.899972 3.689721 -12.556229 0.062685 -3.486503 -0.000000 -0.000001 -0.000000 0.000001 -0.000001 -0.000000 0.562424 -1.403975 0.529353 0.884703 -0.154868 2.634616 0.868027 0.313817 2.552025 0.248676 -0.072995 0.035184 0.248646 -0.072995 0.035184 -0.000000 0.000000 0.000000 0.248619 -0.073000 0.035187 0.248688 -0.072994 0.035185 0.000000 -0.000000 0.000000 -0.000000 0.000000 0.000000 0.000028 -0.000039 -0.312816 3.283946 -25.852119 -73.291816 2.210777 -20.458061 0.701111 -31.889801 -2.761876 2.775038 15.772708 2.736730 17.226055 -2.095717 31.047011 -7.361622 0.000000 -0.000001 -0.000001 2.369902 3.655783 -8.471071 -2.148884 2.464622 -18.676642 -0.000001 -0.000002 -0.000000 -1.977844 5.701702 -13.647715 0.262656 5.095099 -26.987764 0.000001 0.000000 0.000001 -3.264462 8.554524 -11.754576 4.032672 4.051328 -33.265152 0.000001 -0.000002 -0.000003 -6.476555 11.333633 -23.247240 10.714809 2.545189 -34.824648 0.000002 -0.000003 0.000001 0.000001 0.000000 -0.000000 0.000001 0.000000 -0.000000 -0.000000 0.000000 -0.000000 0.000001 0.000001 -0.000001 0.000002 0.000001 -0.000001 0.000001 0.000001 -0.000001 0.000002 0.000001 -0.000001 0.000043 -0.000023 0.312825 5.327600 -3.221258 75.188922 -0.286896 18.989531 0.141503 -7.879909 -10.226305 5.197359 15.779573 -2.730659 -17.214066 -2.090820 -31.045904 7.368317 0.000000 -0.000003 0.000001 2.369879 -3.655455 8.488989 -2.150610 -2.460106 18.669730 0.000000 0.000002 -0.000000 -1.976786 -5.701894 13.665484 0.265031 -5.092489 26.988958 0.000001 0.000000 0.000001 -3.264524 -8.210867 11.646606 4.031900 -4.048843 33.264701 -0.000001 0.000001 0.000002 -6.475196 -11.339135 23.265409 10.714850 -2.543947 34.823713 0.000000 -0.000002 -0.000000 -0.000000 0.000000 0.000001 0.000000 0.000000 0.000001 -0.000000 0.000000 0.000001 -0.000000 0.000000 -0.000000 -0.000000 0.000000 -0.000000 -0.000000 0.000000 -0.000000 -0.000000 -0.000000 -0.000000 0.000000 -0.000000 -0.000000 0.000000 -0.000000 -0.000000 0.000000 -0.000000 -0.000000 0.000000 -0.000000 -0.000000 0.000000 -0.000000 -0.000000 0.000000 -0.000000 -0.000000 0.000000 -0.000000 -0.000000 0.000000 0.000000 -0.000000 -0.000000 0.000000 -0.000000 
